<?xml version="1.0" encoding="utf-8"?>
<!-- Generator: Adobe Illustrator 16.0.0, SVG Export Plug-In . SVG Version: 6.00 Build 0)  -->
<!DOCTYPE svg PUBLIC "-//W3C//DTD SVG 1.1//EN" "http://www.w3.org/Graphics/SVG/1.1/DTD/svg11.dtd">
<svg version="1.1" id="Layer_1" xmlns="http://www.w3.org/2000/svg" xmlns:xlink="http://www.w3.org/1999/xlink" x="0px" y="0px"
	 width="100px" height="100px" viewBox="0 0 100 100" enable-background="new 0 0 100 100" xml:space="preserve">
<radialGradient id="SVGID_1_" cx="-140.0215" cy="-253.4795" r="45.5404" gradientTransform="matrix(0.515 -0.8572 -1.1315 -0.6799 -164.9265 -243.384)" gradientUnits="userSpaceOnUse">
	<stop  offset="0.4426" style="stop-color:#FFFFFF"/>
	<stop  offset="0.5359" style="stop-color:#FCFCFC"/>
	<stop  offset="0.609" style="stop-color:#F2F2F2"/>
	<stop  offset="0.6752" style="stop-color:#E1E1E1"/>
	<stop  offset="0.7374" style="stop-color:#CACACA"/>
	<stop  offset="0.7967" style="stop-color:#ACACAC"/>
	<stop  offset="0.8539" style="stop-color:#868686"/>
	<stop  offset="0.9094" style="stop-color:#5A5A5A"/>
	<stop  offset="0.9622" style="stop-color:#292929"/>
	<stop  offset="1" style="stop-color:#000000"/>
</radialGradient>
<ellipse fill="url(#SVGID_1_)" cx="49.774" cy="48.984" rx="49.462" ry="41.249"/>
<radialGradient id="SVGID_2_" cx="297.373" cy="-318.9023" r="41.6286" gradientTransform="matrix(1 0 0 -1 -247.5996 -269.9902)" gradientUnits="userSpaceOnUse">
	<stop  offset="0.3007" style="stop-color:#FFFFFF"/>
	<stop  offset="1" style="stop-color:#8A8A8A"/>
</radialGradient>
<ellipse fill="url(#SVGID_2_)" cx="49.774" cy="48.912" rx="45.212" ry="37.705"/>
<path d="M12.214,60.893h5.841l3.052-8.529h4.068l2.888-7.974h-3.938l1.936-5.579c0,0,2.625,0.395,5.545-3.51
	c2.919-3.905,2.625-4.233,2.625-4.233H23.228L12.214,60.893z"/>
<path d="M68.389,33.364c-0.82-1.837-2.395-2.199-2.395-2.199H58.35L47.16,60.958c0,0,8.201,0,9.383,0s2.396-0.854,3.381-1.737
	c0.984-0.888,1.969-2.396,1.969-2.396l7.283-20.048C69.176,36.776,69.209,35.201,68.389,33.364z M58.176,56.241h-4.848l6.818-18.948
	h4.647L58.176,56.241z"/>
<polygon fill="#ED1F24" points="38.792,31.066 51.688,32.149 39.154,33.232 50.934,34.217 38.268,35.43 50.113,36.284 
	37.645,37.531 49.423,38.449 36.889,39.598 48.538,40.615 36.201,41.796 47.881,42.715 35.348,43.863 47.028,44.848 34.526,45.979 
	46.241,46.915 33.74,48.063 45.584,49.048 33.083,50.196 44.797,51.214 30.885,52.361 "/>
<polygon fill="#ED1F24" points="35.265,52.23 43.952,53.337 35.561,54.445 43.14,55.43 34.847,56.563 42.353,57.67 34.108,58.702 
	41.59,59.734 32.042,60.893 "/>
<g>
	<polygon fill="#ED1F24" points="71.795,48.912 68.164,49.245 71.572,49.512 	"/>
	<polygon fill="#ED1F24" points="69.805,45.044 73.123,45.309 73.34,44.72 	"/>
	<polygon fill="#ED1F24" points="71.25,40.746 82.963,41.764 70.461,42.912 82.307,43.896 79.352,44.167 78.771,45.76 81.52,45.979 
		78.594,46.245 78.002,47.869 80.697,48.096 77.822,48.359 77.24,49.958 79.848,50.163 77.068,50.429 76.451,52.124 79.156,52.361 
		76.268,52.626 75.688,54.217 78.402,54.43 75.504,54.719 74.918,56.323 77.779,56.527 65.113,57.742 76.893,58.729 64.357,59.811 
		77.254,60.893 85.162,39.597 	"/>
	<polygon fill="#ED1F24" points="72.576,46.789 69.018,47.111 72.355,47.393 	"/>
	<polygon fill="#ED1F24" points="69.43,55.326 65.934,55.676 69.215,55.912 	"/>
	<polygon fill="#ED1F24" points="70.221,53.182 66.623,53.51 70.002,53.773 	"/>
	<polygon fill="#ED1F24" points="71.021,51.009 67.508,51.346 70.791,51.632 	"/>
</g>
<g>
	<polygon fill="#ED1F24" points="73.693,34.291 76.264,34.669 76.516,33.937 	"/>
	<polygon fill="#ED1F24" points="75.758,36.141 72.906,36.53 75.508,36.868 	"/>
	<polygon fill="#ED1F24" points="74.455,32.223 81.938,33.256 79.943,33.507 79.361,35.126 81.199,35.397 79.164,35.675 
		78.592,37.268 80.484,37.515 78.402,37.789 77.84,39.354 80.781,39.729 84.006,31.066 	"/>
	<polygon fill="#ED1F24" points="75.037,38.233 72.094,38.622 74.787,38.965 	"/>
</g>
</svg>
