<?xml version="1.0" encoding="UTF-8" standalone="no"?>
<!-- Created with Inkscape (http://www.inkscape.org/) -->
<svg
   xmlns:dc="http://purl.org/dc/elements/1.1/"
   xmlns:cc="http://creativecommons.org/ns#"
   xmlns:rdf="http://www.w3.org/1999/02/22-rdf-syntax-ns#"
   xmlns:svg="http://www.w3.org/2000/svg"
   xmlns="http://www.w3.org/2000/svg"
   xmlns:sodipodi="http://sodipodi.sourceforge.net/DTD/sodipodi-0.dtd"
   xmlns:inkscape="http://www.inkscape.org/namespaces/inkscape"
   width="215"
   height="49.782143"
   id="svg2"
   sodipodi:version="0.32"
   inkscape:version="0.45+0.46pre3+devel"
   version="1.0"
   sodipodi:docname="Brembo logo.svg"
   inkscape:output_extension="org.inkscape.output.svg.inkscape">
  <defs
     id="defs4">
    <inkscape:perspective
       sodipodi:type="inkscape:persp3d"
       inkscape:vp_x="0 : 526.18109 : 1"
       inkscape:vp_y="0 : 1000 : 0"
       inkscape:vp_z="744.09448 : 526.18109 : 1"
       inkscape:persp3d-origin="372.04724 : 350.78739 : 1"
       id="perspective10" />
    <inkscape:perspective
       id="perspective2464"
       inkscape:persp3d-origin="372.04724 : 350.78739 : 1"
       inkscape:vp_z="744.09448 : 526.18109 : 1"
       inkscape:vp_y="0 : 1000 : 0"
       inkscape:vp_x="0 : 526.18109 : 1"
       sodipodi:type="inkscape:persp3d" />
  </defs>
  <sodipodi:namedview
     id="base"
     pagecolor="#ffffff"
     bordercolor="#666666"
     borderopacity="1.0"
     gridtolerance="10000"
     guidetolerance="10"
     objecttolerance="10"
     inkscape:pageopacity="0.0"
     inkscape:pageshadow="2"
     inkscape:zoom="1.979899"
     inkscape:cx="108.92083"
     inkscape:cy="-6.0635473"
     inkscape:document-units="px"
     inkscape:current-layer="layer1"
     showgrid="false"
     inkscape:window-width="1102"
     inkscape:window-height="667"
     inkscape:window-x="198"
     inkscape:window-y="35" />
  <metadata
     id="metadata7">
    <rdf:RDF>
      <cc:Work
         rdf:about="">
        <dc:format>image/svg+xml</dc:format>
        <dc:type
           rdf:resource="http://purl.org/dc/dcmitype/StillImage" />
      </cc:Work>
    </rdf:RDF>
  </metadata>
  <g
     inkscape:label="Layer 1"
     inkscape:groupmode="layer"
     id="layer1"
     transform="translate(-34.50057,-25.810911)">
    <g
       id="g3272"
       transform="matrix(0.8260872,0,0,0.8260872,16.906754,-58.640121)">
      <path
         d="M 61.65957,111.37871 C 58.61307,111.46271 55.65207,112.05521 52.86057,113.32421 L 56.49807,119.75471 C 58.10607,119.07821 59.96757,118.65521 61.65957,118.65521 C 62.25207,118.65521 62.75907,118.73921 63.35157,118.82321 C 70.28907,119.33171 75.87357,126.52421 75.36657,133.37621 C 74.77407,140.90621 68.76657,145.64471 61.65957,145.98371 C 61.23657,145.98371 60.72807,145.98371 60.30507,145.98371 C 55.65207,144.96821 51.76107,143.02271 49.47657,138.62171 L 41.86107,125.42321 C 40.84557,128.46971 40.50807,131.34671 40.76157,134.47721 C 41.94657,144.46121 49.56057,152.07521 59.54457,153.26021 C 60.22107,153.34421 60.98307,153.34421 61.65957,153.34421 C 73.25157,153.17471 82.55757,143.95271 82.72707,132.44621 C 82.55757,121.02371 73.84257,112.22471 62.75907,111.37871 C 62.42157,111.37871 61.99857,111.37871 61.65957,111.37871 z M 61.65957,159.43571 C 46.76907,159.43571 34.50057,147.25271 34.50057,132.44621 C 34.50057,125.16971 37.37607,118.56971 42.11457,113.66321 L 55.06107,135.99971 C 55.65207,137.01371 56.49807,137.94521 57.51357,138.70721 C 58.69857,139.38371 60.05157,139.89071 61.49007,139.89071 C 61.57557,139.89071 61.65957,139.89071 61.65957,139.89071 C 66.90507,140.06021 70.54257,134.39171 68.76657,129.73871 C 67.75107,126.77771 64.79007,124.83221 61.65957,124.83221 C 61.23657,124.83221 60.81357,124.83221 60.39057,124.91621 C 58.10607,125.16971 55.82157,127.11521 54.80607,129.14621 L 44.56857,111.37871 C 49.22157,107.57171 55.22907,105.28721 61.65957,105.28721 C 76.63557,105.28721 88.81857,117.47021 88.81857,132.44621 C 88.81857,147.25271 76.63557,159.43571 61.65957,159.43571"
         style="fill:#c7070f;fill-opacity:1;fill-rule:evenodd;stroke:none"
         id="path2472" />
      <path
         d="M 130.78557,135.66071 L 126.63957,128.63771 C 126.47007,129.31571 126.38607,129.99221 126.38607,130.75421 L 126.38607,150.12971 L 133.83057,150.12971 L 133.83057,140.99171 L 130.78557,135.66071 z M 174.86607,134.22221 L 178.84257,141.07571 L 178.84257,150.04421 L 178.75707,150.04421 L 178.75707,150.12971 L 170.38107,150.12971 L 170.38107,126.52421 L 174.86607,134.22221 z M 174.86607,130.50071 L 178.84257,137.26871 L 178.84257,132.86921 C 178.84257,129.65471 184.25757,129.40121 184.25757,132.86921 L 184.25757,150.04421 L 189.24957,150.04421 L 189.24957,150.12971 L 193.56357,150.12971 L 193.56357,132.86921 C 193.56357,129.65471 198.98007,129.40121 198.98007,132.86921 L 198.98007,150.12971 L 207.35607,150.12971 L 207.35607,132.44621 C 207.35607,122.88521 195.34107,121.10921 190.94157,127.11521 C 188.23407,123.39371 182.64957,122.63171 178.75707,124.83221 L 178.75707,123.64721 L 170.88957,123.64721 L 174.86607,130.50071 z M 221.57007,138.79121 L 212.43207,122.97071 C 212.43207,132.02321 212.43207,141.07571 212.43207,150.04421 L 219.87807,150.04421 L 219.87807,148.94471 C 221.57007,149.79071 223.51557,150.29771 225.63057,150.29771 C 232.82307,150.29771 238.74507,144.37571 238.74507,137.09921 C 238.74507,129.90821 232.82307,123.98621 225.63057,123.98621 C 223.51557,123.98621 221.57007,124.49321 219.87807,125.33921 L 219.87807,114.42521 L 212.43207,114.42521 C 212.43207,117.47021 212.43207,116.11571 212.43207,119.16221 L 221.73957,135.15371 C 222.41607,133.79921 223.93857,132.78521 225.63057,132.78521 C 228.00057,132.78521 229.94607,134.73071 229.94607,137.09921 C 229.94607,139.46771 228.00057,141.41471 225.63057,141.41471 C 223.76907,141.41471 222.24657,140.39921 221.57007,138.79121 z M 251.35107,139.04471 L 245.26107,128.55371 C 243.23007,130.83821 242.04507,133.79921 242.04507,137.09921 C 242.04507,144.37571 247.96857,150.29771 255.24357,150.29771 C 262.43607,150.29771 268.35807,144.37571 268.35807,137.09921 C 268.35807,129.90821 262.43607,123.98621 255.24357,123.98621 C 251.94357,123.98621 248.98257,125.16971 246.61407,127.20071 L 251.35107,135.23771 C 252.02907,133.79921 253.55157,132.78521 255.24357,132.78521 C 257.61357,132.78521 259.55907,134.73071 259.55907,137.09921 C 259.55907,139.46771 257.61357,141.41471 255.24357,141.41471 C 253.55157,141.41471 252.02907,140.48321 251.35107,139.04471 z M 155.40507,143.27621 C 156.75957,142.76771 157.68957,141.49871 157.94457,140.06021 L 166.57407,140.06021 C 165.30507,145.39121 160.90557,149.45171 155.40507,150.21371 C 154.89807,150.21371 154.30557,150.29771 153.71307,150.29771 C 146.52207,150.29771 140.60007,144.37571 140.60007,137.09921 C 140.60007,134.22221 141.53007,131.68421 143.05407,129.48521 L 149.82207,141.07571 C 150.49857,142.59821 151.93707,143.61371 153.71307,143.61371 C 154.30557,143.61371 154.89807,143.52971 155.40507,143.27621 z M 155.40507,134.81471 L 158.02857,134.81471 C 157.85907,133.20821 156.84357,131.93771 155.40507,131.34671 C 154.89807,131.09171 154.30557,131.00771 153.71307,131.00771 C 151.43007,131.00771 149.65257,132.61571 149.48307,134.81471 L 155.40507,134.81471 z M 155.40507,124.07021 C 154.89807,124.07021 154.30557,123.98621 153.71307,123.98621 C 150.16107,123.98621 146.77557,125.50871 144.40707,127.96121 L 150.66807,138.79121 L 150.66807,138.19871 L 166.82757,138.19871 C 166.82757,137.77571 166.91307,137.43821 166.91307,137.09921 C 166.91307,130.50071 161.83557,124.91621 155.40507,124.07021 z M 130.78557,131.93771 L 127.65507,126.60821 C 128.50107,125.59271 129.60057,124.91621 130.78557,124.57721 C 131.46207,124.32371 132.22257,124.23971 132.90057,124.23971 L 138.90807,124.23971 L 138.90807,131.17721 L 137.21457,131.17721 C 135.26907,131.17721 133.83057,132.53021 133.83057,134.56121 L 133.83057,137.18471 L 130.78557,131.93771 z M 104.89557,138.79121 L 95.67207,122.97071 C 95.67207,132.02321 95.67207,141.07571 95.67207,150.04421 L 103.11807,150.04421 L 103.11807,148.94471 C 104.89557,149.79071 106.84107,150.29771 108.87057,150.29771 C 116.06307,150.29771 122.07057,144.37571 122.07057,137.09921 C 122.07057,129.90821 116.06307,123.98621 108.87057,123.98621 C 106.84107,123.98621 104.89557,124.49321 103.11807,125.33921 L 103.11807,114.42521 L 95.67207,114.42521 C 95.67207,117.47021 95.67207,116.11571 95.67207,119.16221 L 104.97957,135.15371 C 105.65607,133.79921 107.17857,132.78521 108.87057,132.78521 C 111.24057,132.78521 113.18607,134.73071 113.18607,137.09921 C 113.18607,139.46771 111.24057,141.41471 108.87057,141.41471 C 107.09457,141.41471 105.57207,140.39921 104.89557,138.79121"
         style="fill:#c7070f;fill-opacity:1;fill-rule:evenodd;stroke:none"
         id="path2474" />
    </g>
  </g>
</svg>
