<?xml version="1.0" encoding="UTF-8" standalone="no"?>
<!-- Created by User:Dancraggs for the English Wikipedia -->
<svg
   xmlns:dc="http://purl.org/dc/elements/1.1/"
   xmlns:cc="http://creativecommons.org/ns#"
   xmlns:rdf="http://www.w3.org/1999/02/22-rdf-syntax-ns#"
   xmlns:svg="http://www.w3.org/2000/svg"
   xmlns="http://www.w3.org/2000/svg"
   version="1.1"
   width="483.638"
   height="155.83501"
   id="svg2">
  <metadata
     id="metadata44">
    <rdf:RDF>
      <cc:Work
         rdf:about="">
        <dc:format>image/svg+xml</dc:format>
        <dc:type
           rdf:resource="http://purl.org/dc/dcmitype/StillImage" />
        <dc:title></dc:title>
      </cc:Work>
    </rdf:RDF>
  </metadata>
  <defs
     id="defs42" />
  <g
     id="g4">
    <path
       d="m 99.148,0 c -43.03,0 -77.894,34.865 -77.894,77.894 0,1.487 0.057,2.964 0.14,4.43 H 10.526 c -0.52,0 -0.838,0.305 -1.026,0.7 -0.19,0.398 -9.167,16.173 -9.376,16.56 -0.207,0.384 -0.182,0.606 0.28,0.606 H 24.52 c 9.585,32.17 39.348,55.645 74.628,55.645 43.03,0 77.94,-34.91 77.94,-77.94 C 177.088,34.865 142.178,0 99.148,0 z m 0,17.584 c 16.977,0 32.314,7.047 43.285,18.33 -3.063,5.197 -25.965,44.05 -28.966,49.536 -1.6,-3.81 -9.238,-3.09 -13.107,-3.125 -1.71,2.823 -9.7,17.865 -9.7,17.865 0,0 4.397,-0.064 8.394,0 3.857,0.062 4.288,4.064 2.752,6.623 -1.536,2.56 -7.742,13.62 -7.742,13.62 h 20.196 c 0,0 27.137,-47.45 39.274,-68.66 3.804,7.9 5.97,16.766 5.97,26.12 0,33.317 -27.04,60.357 -60.356,60.357 -16.73,0 -31.848,-6.81 -42.772,-17.817 h 18.098 c 0,0 48.047,-84.67 48.23,-84.984 0.18,-0.32 0.083,-0.56 -0.235,-0.56 h -19.59 c -0.376,-0.027 -0.51,0.11 -0.607,0.28 L 75.22,82.324 H 39.025 c -0.106,-1.462 -0.187,-2.942 -0.187,-4.43 0,-33.316 26.994,-60.31 60.31,-60.31 z M 43.083,100.19 h 21.642 l -10.4,18.05 c -4.74,-5.27 -8.582,-11.354 -11.242,-18.05 z"
       id="path6"
       style="fill:#d0112b" />
    <g
       id="g8"
       style="fill:#d0112b">
      <path
         d="M 219.425,83.115 H 233.02 V 52.282 h 43.69 v 30.833 h 13.597 V 15.17 H 276.71 V 41.623 H 233.02 V 15.17 h -13.595 z"
         id="path10" />
      <path
         d="m 352.727,47.713 c 0,-2.22 -0.21,-4.22 -0.635,-5.995 -0.423,-1.777 -1.465,-3.505 -3.126,-5.186 -1.662,-1.68 -4.275,-3.06 -7.84,-4.138 -3.566,-1.08 -8.31,-1.618 -14.23,-1.618 -7.553,0 -13.46,1.3 -17.72,3.902 -4.258,2.6 -6.81,7.073 -7.658,13.416 h 12.237 c 0.483,-5.582 4.863,-8.373 13.14,-8.373 4.17,0 7.478,0.54 9.925,1.62 2.447,1.077 3.67,2.948 3.67,5.612 0,1.015 -0.21,1.824 -0.633,2.427 -0.422,0.602 -1.268,1.11 -2.538,1.522 -1.27,0.412 -3.098,0.793 -5.484,1.14 -2.386,0.35 -6.117,0.78 -11.194,1.288 h -0.09 c -2.96,0.254 -5.513,0.587 -7.66,1 -2.144,0.41 -4.29,1.157 -6.434,2.235 -2.144,1.08 -3.912,2.65 -5.302,4.71 -1.39,2.063 -2.086,4.71 -2.086,7.947 0,4.948 1.707,8.818 5.122,11.61 3.414,2.79 8.232,4.186 14.456,4.186 3.264,0 6.195,-0.222 8.793,-0.666 2.6,-0.443 4.79,-1.03 6.57,-1.76 1.784,-0.73 3.233,-1.46 4.35,-2.19 1.118,-0.73 2.07,-1.506 2.855,-2.33 0.122,0.762 0.304,1.46 0.545,2.094 0.242,0.634 0.695,1.3 1.36,1.998 0.664,0.698 1.616,1.27 2.856,1.714 1.24,0.444 2.794,0.666 4.666,0.666 1.512,0 2.796,-0.064 3.853,-0.192 1.056,-0.127 2.28,-0.35 3.67,-0.665 l 1.36,-0.287 v -9.23 c -0.423,0.064 -1.058,0.128 -1.903,0.19 -0.846,0.064 -1.57,0.095 -2.176,0.095 -0.724,0 -1.36,-0.174 -1.903,-0.523 -0.544,-0.348 -0.816,-1.126 -0.816,-2.332 z m -12.507,15.13 c 0,2.603 -0.59,4.824 -1.768,6.663 -1.178,1.84 -2.69,3.267 -4.532,4.282 -1.843,1.016 -3.792,1.746 -5.846,2.19 -2.054,0.445 -4.018,0.667 -5.89,0.667 -1.21,0 -2.387,-0.112 -3.535,-0.334 -1.15,-0.222 -2.22,-0.618 -3.22,-1.188 -0.997,-0.57 -1.797,-1.38 -2.4,-2.427 -0.605,-1.047 -0.907,-2.364 -0.907,-3.95 0,-2.22 0.815,-3.9 2.446,-5.043 1.63,-1.14 4.712,-1.997 9.245,-2.57 5.135,-0.634 8.73,-1.126 10.786,-1.475 2.056,-0.35 3.93,-0.905 5.62,-1.666 z"
         id="path12" />
      <path
         d="m 419.53,47.713 c 0,-2.22 -0.21,-4.22 -0.634,-5.995 -0.423,-1.777 -1.465,-3.505 -3.127,-5.186 -1.662,-1.68 -4.276,-3.06 -7.84,-4.138 -3.566,-1.08 -8.31,-1.618 -14.23,-1.618 -7.553,0 -13.46,1.3 -17.72,3.902 -4.26,2.6 -6.812,7.073 -7.658,13.416 h 12.236 c 0.484,-5.582 4.864,-8.373 13.142,-8.373 4.17,0 7.477,0.54 9.924,1.62 2.447,1.077 3.67,2.948 3.67,5.612 0,1.015 -0.21,1.824 -0.633,2.427 -0.42,0.602 -1.267,1.11 -2.537,1.522 -1.27,0.412 -3.097,0.793 -5.483,1.14 -2.387,0.35 -6.118,0.78 -11.194,1.288 h -0.092 c -2.96,0.254 -5.512,0.587 -7.657,1 -2.146,0.41 -4.29,1.157 -6.435,2.235 -2.145,1.08 -3.912,2.65 -5.302,4.71 -1.39,2.063 -2.086,4.71 -2.086,7.947 0,4.948 1.707,8.818 5.12,11.61 3.415,2.79 8.234,4.186 14.457,4.186 3.265,0 6.196,-0.222 8.794,-0.666 2.6,-0.443 4.79,-1.03 6.57,-1.76 1.783,-0.73 3.233,-1.46 4.35,-2.19 1.118,-0.73 2.07,-1.506 2.855,-2.33 0.12,0.762 0.302,1.46 0.544,2.094 0.24,0.634 0.695,1.3 1.36,1.998 0.664,0.698 1.616,1.27 2.855,1.714 1.238,0.444 2.794,0.666 4.665,0.666 1.512,0 2.797,-0.064 3.853,-0.192 1.057,-0.127 2.28,-0.35 3.67,-0.665 l 1.362,-0.287 v -9.23 c -0.424,0.064 -1.06,0.128 -1.905,0.19 -0.845,0.064 -1.57,0.095 -2.175,0.095 -0.725,0 -1.36,-0.174 -1.903,-0.523 -0.544,-0.348 -0.816,-1.126 -0.816,-2.332 z m -12.507,15.13 c 0,2.603 -0.59,4.824 -1.767,6.663 -1.18,1.84 -2.69,3.267 -4.532,4.282 -1.843,1.016 -3.792,1.746 -5.846,2.19 -2.054,0.445 -4.018,0.667 -5.892,0.667 -1.207,0 -2.385,-0.112 -3.533,-0.334 -1.148,-0.222 -2.22,-0.618 -3.218,-1.188 -0.998,-0.57 -1.8,-1.38 -2.403,-2.427 -0.604,-1.047 -0.905,-2.364 -0.905,-3.95 0,-2.22 0.815,-3.9 2.446,-5.043 1.63,-1.14 4.713,-1.997 9.245,-2.57 5.136,-0.634 8.73,-1.126 10.786,-1.475 2.055,-0.35 3.928,-0.905 5.62,-1.666 z"
         id="path14" />
      <path
         d="m 430.247,67.32 c 0.12,3.614 1.058,6.61 2.81,8.99 1.752,2.38 3.957,4.205 6.616,5.474 2.66,1.27 5.484,2.125 8.475,2.568 2.99,0.444 5.997,0.666 9.017,0.666 3.87,0 7.404,-0.302 10.606,-0.904 3.203,-0.602 5.998,-1.585 8.385,-2.95 2.387,-1.363 4.245,-3.155 5.573,-5.376 1.33,-2.22 1.993,-4.886 1.993,-7.995 0,-2.79 -0.588,-5.09 -1.766,-6.898 -1.18,-1.808 -2.885,-3.25 -5.12,-4.33 -2.235,-1.078 -4.727,-1.903 -7.476,-2.474 -2.75,-0.57 -6.663,-1.236 -11.74,-1.997 -3.08,-0.446 -5.498,-0.858 -7.25,-1.24 -1.753,-0.38 -3.052,-0.776 -3.897,-1.188 -0.845,-0.413 -1.404,-0.936 -1.676,-1.57 -0.272,-0.634 -0.408,-1.49 -0.408,-2.57 0,-1.458 0.982,-2.79 2.946,-3.996 1.964,-1.206 4.607,-1.81 7.93,-1.81 1.33,0 2.69,0.096 4.08,0.286 1.388,0.19 2.763,0.57 4.123,1.14 1.36,0.572 2.538,1.43 3.535,2.57 0.996,1.143 1.615,2.602 1.857,4.378 h 13.053 c -0.18,-3.807 -1.224,-6.9 -3.127,-9.278 -1.904,-2.378 -4.216,-4.14 -6.935,-5.28 -2.72,-1.143 -5.407,-1.89 -8.065,-2.237 -2.658,-0.35 -5.287,-0.524 -7.885,-0.524 -2.478,0 -5.046,0.206 -7.704,0.62 -2.658,0.41 -5.226,1.172 -7.703,2.28 -2.477,1.11 -4.53,2.776 -6.163,4.996 -1.632,2.22 -2.448,5.013 -2.448,8.376 0,2.792 0.467,5.092 1.404,6.9 0.937,1.806 2.326,3.234 4.17,4.28 1.843,1.05 4.063,1.858 6.66,2.43 2.6,0.57 6.074,1.173 10.424,1.806 3.505,0.507 6.27,0.983 8.293,1.427 2.025,0.445 3.55,0.906 4.578,1.382 1.027,0.476 1.737,1.047 2.13,1.713 0.392,0.666 0.588,1.54 0.588,2.617 0,2.22 -1.283,3.854 -3.85,4.9 -2.57,1.047 -5.635,1.57 -9.2,1.57 -1.39,0 -2.795,-0.11 -4.215,-0.332 -1.42,-0.222 -2.808,-0.65 -4.168,-1.285 -1.36,-0.635 -2.493,-1.54 -3.4,-2.712 -0.906,-1.174 -1.39,-2.648 -1.45,-4.424 z"
         id="path16" />
    </g>
    <g
       id="g18">
      <path
         d="m 324.244,141.246 h 8.214 v -36.458 h 17.166 v -6.783 h -43.377 v 6.783 h 17.997 z"
         id="path20" />
      <path
         d="m 383.33,127.316 v -1.21 c 0,-2.464 -0.338,-4.775 -1.014,-6.935 -0.676,-2.16 -1.726,-4.087 -3.15,-5.783 -1.423,-1.697 -3.276,-3.03 -5.558,-3.997 -2.28,-0.97 -4.973,-1.453 -8.076,-1.453 -2.556,0 -4.91,0.414 -7.064,1.24 -2.154,0.83 -4.006,2.01 -5.558,3.543 -1.552,1.534 -2.748,3.39 -3.587,5.572 -0.84,2.18 -1.26,4.582 -1.26,7.207 0,2.22 0.338,4.34 1.013,6.36 0.675,2.017 1.725,3.824 3.15,5.42 1.422,1.594 3.293,2.855 5.612,3.784 2.318,0.928 5.047,1.393 8.187,1.393 2.59,0 4.864,-0.364 6.817,-1.09 1.954,-0.726 3.57,-1.635 4.847,-2.725 1.276,-1.09 2.29,-2.21 3.038,-3.362 0.748,-1.15 1.396,-2.312 1.943,-3.482 h -8.213 c -0.84,1.494 -1.907,2.635 -3.203,3.423 -1.296,0.788 -3.112,1.182 -5.448,1.182 -1.753,0 -3.268,-0.293 -4.546,-0.88 -1.277,-0.585 -2.29,-1.332 -3.04,-2.24 -0.747,-0.908 -1.303,-1.877 -1.67,-2.906 -0.364,-1.03 -0.565,-2.05 -0.6,-3.06 z m -27.38,-5.33 c 0.29,-1.573 0.784,-2.906 1.478,-3.996 0.693,-1.09 1.505,-1.95 2.436,-2.574 0.93,-0.625 1.89,-1.08 2.875,-1.362 0.985,-0.283 1.952,-0.424 2.9,-0.424 1.023,0 2.046,0.14 3.068,0.424 1.022,0.283 2.008,0.747 2.957,1.392 0.95,0.646 1.76,1.514 2.436,2.605 0.677,1.09 1.124,2.403 1.343,3.937 z"
         id="path22" />
      <path
         d="m 419.988,118.716 c 0,-1.413 -0.128,-2.685 -0.383,-3.816 -0.256,-1.13 -0.886,-2.23 -1.89,-3.3 -1.003,-1.07 -2.582,-1.947 -4.736,-2.634 -2.155,-0.686 -5.02,-1.03 -8.598,-1.03 -4.564,0 -8.132,0.83 -10.706,2.484 -2.573,1.656 -4.116,4.502 -4.627,8.538 h 7.392 c 0.292,-3.552 2.938,-5.328 7.94,-5.328 2.52,0 4.517,0.343 5.996,1.03 1.478,0.685 2.217,1.876 2.217,3.572 0,0.645 -0.127,1.16 -0.382,1.544 -0.256,0.384 -0.767,0.707 -1.534,0.97 -0.768,0.262 -1.872,0.504 -3.314,0.726 -1.44,0.22 -3.696,0.494 -6.763,0.818 h -0.055 c -1.788,0.162 -3.33,0.374 -4.627,0.636 -1.295,0.263 -2.59,0.737 -3.886,1.423 -1.296,0.686 -2.364,1.685 -3.204,2.997 -0.84,1.312 -1.26,2.998 -1.26,5.057 0,3.15 1.03,5.612 3.094,7.388 2.063,1.776 4.974,2.665 8.734,2.665 1.972,0 3.743,-0.142 5.313,-0.424 1.57,-0.282 2.894,-0.655 3.97,-1.12 1.077,-0.464 1.953,-0.93 2.628,-1.393 0.676,-0.465 1.25,-0.96 1.725,-1.484 0.074,0.485 0.183,0.93 0.33,1.333 0.145,0.403 0.42,0.826 0.82,1.27 0.402,0.445 0.977,0.808 1.726,1.09 0.748,0.284 1.687,0.425 2.818,0.425 0.914,0 1.69,-0.04 2.328,-0.122 0.64,-0.08 1.378,-0.222 2.218,-0.423 0.365,-0.08 0.64,-0.142 0.822,-0.183 v -5.874 c -0.256,0.04 -0.64,0.08 -1.15,0.12 -0.51,0.04 -0.95,0.06 -1.315,0.06 -0.437,0 -0.82,-0.11 -1.15,-0.33 -0.327,-0.223 -0.492,-0.718 -0.492,-1.485 z m -7.557,9.63 c 0,1.655 -0.354,3.07 -1.066,4.24 -0.712,1.17 -1.625,2.078 -2.74,2.724 -1.112,0.647 -2.29,1.11 -3.53,1.394 -1.242,0.283 -2.428,0.424 -3.56,0.424 -0.73,0 -1.44,-0.07 -2.135,-0.212 -0.694,-0.142 -1.343,-0.394 -1.945,-0.757 -0.603,-0.364 -1.087,-0.88 -1.452,-1.546 -0.365,-0.666 -0.547,-1.504 -0.547,-2.513 0,-1.412 0.493,-2.482 1.478,-3.21 0.986,-0.725 2.847,-1.27 5.586,-1.633 3.103,-0.405 5.275,-0.718 6.517,-0.94 1.24,-0.223 2.373,-0.576 3.394,-1.06 z"
         id="path24" />
      <path
         d="m 450.157,141.246 h 7.556 V 123.38 c 0,-1.656 0.274,-3.06 0.822,-4.21 0.547,-1.15 1.232,-2.048 2.054,-2.694 0.82,-0.646 1.67,-1.1 2.545,-1.362 0.877,-0.263 1.698,-0.394 2.465,-0.394 1.606,0 2.893,0.212 3.86,0.636 0.967,0.424 1.688,0.99 2.162,1.696 0.475,0.706 0.776,1.463 0.904,2.27 0.13,0.807 0.193,1.736 0.193,2.785 v 19.14 h 7.556 v -21.32 c 0,-2.3 -0.356,-4.228 -1.068,-5.783 -0.712,-1.554 -1.652,-2.755 -2.82,-3.604 -1.17,-0.848 -2.4,-1.434 -3.697,-1.757 -1.295,-0.322 -2.62,-0.484 -3.97,-0.484 -2.81,0 -5.21,0.565 -7.2,1.695 -1.99,1.13 -3.514,2.544 -4.572,4.24 -0.475,-1.252 -1.104,-2.28 -1.89,-3.09 -0.784,-0.806 -1.65,-1.412 -2.6,-1.815 -0.95,-0.404 -1.89,-0.676 -2.82,-0.818 -0.93,-0.142 -1.908,-0.213 -2.93,-0.213 -2.483,0 -4.692,0.504 -6.627,1.514 -1.934,1.01 -3.54,2.402 -4.817,4.178 h -0.11 v -4.844 h -7.557 v 32.098 h 7.557 V 123.38 c 0,-1.656 0.274,-3.06 0.82,-4.21 0.55,-1.15 1.234,-2.048 2.055,-2.694 0.822,-0.646 1.67,-1.1 2.546,-1.362 0.876,-0.263 1.697,-0.394 2.465,-0.394 1.604,0 2.89,0.212 3.86,0.636 0.966,0.424 1.687,0.99 2.162,1.696 0.474,0.706 0.776,1.463 0.903,2.27 0.128,0.807 0.19,1.736 0.19,2.785 z"
         id="path26" />
    </g>
    <g
       id="g28">
      <path
         d="m 220.194,141.246 h 8.214 v -18.774 h 25.767 v -6.784 h -25.767 v -10.9 h 28.96 v -6.783 h -37.174 z"
         id="path30" />
      <path
         d="m 269.917,141.537 h 7.886 V 98.9 h -6.024 c -0.256,1.495 -0.786,2.746 -1.59,3.756 -0.802,1.01 -1.742,1.786 -2.82,2.33 -1.076,0.546 -2.17,0.92 -3.284,1.122 -1.114,0.202 -2.218,0.303 -3.313,0.303 h -2.302 v 6.056 h 11.447 z"
         id="path32" />
    </g>
  </g>
  <g
     id="g34">
    <path
       d="m 280.81,98.535 h 1.788 v 4.795 h 0.99 v -4.795 h 1.795 v -0.854 h -4.573 z"
       id="path36" />
    <path
       d="m 286.03,103.33 h 0.942 v -4.36 h 0.015 l 1.567,4.36 h 0.815 l 1.566,-4.36 h 0.016 v 4.36 h 0.94 v -5.65 h -1.376 l -1.52,4.423 h -0.015 l -1.557,-4.422 h -1.393 z"
       id="path38" />
  </g>
</svg>
