<?xml version="1.0" encoding="UTF-8" standalone="no"?>
<svg
   xmlns:svg="http://www.w3.org/2000/svg"
   xmlns="http://www.w3.org/2000/svg"
   version="1.1"
   width="534.41284"
   height="288.35828"
   id="svg3721">
  <defs
     id="defs3723" />
  <g
     transform="translate(-82.79325,-388.18302)"
     id="layer1">
    <path
       d="m 422.83736,393.19062 -15.69852,0 c 0,28.49609 -7.1858,41.41914 -22.13912,50.37668 l 0,-50.38428 -24.15419,0 0,60.86263 c -4.50919,1.58164 -9.35296,3.2203 -14.54651,4.99965 -2.91234,0.99232 -5.73343,1.98085 -8.47469,2.95796 l 0,-68.82024 -24.16559,0 0,78.87277 c -24.43554,12.39836 -37.66655,29.55305 -37.66655,68.26515 l 15.69471,0 c 0,-26.4316 6.47483,-39.52193 21.97184,-49.26649 l 0,49.2855 24.16559,0 0,-60.41399 c 4.09858,-1.52841 8.4861,-3.06443 13.2158,-4.68789 3.33817,-1.1444 6.6079,-2.25839 9.8054,-3.36098 l 0,68.46286 24.15419,0 0,-77.99451 c 23.02119,-11.12088 37.83764,-27.78131 37.83764,-69.15482 m -91.47909,260.67365 -28.57597,0 -0.0122,-21.12399 28.67855,0 c 8.49373,0 12.17788,3.31916 12.17788,10.86236 0,5.64599 -2.30785,10.26163 -12.2691,10.26163 m -2.54354,-53.32324 c 9.16665,0 11.98775,3.32676 11.98775,8.8625 0,5.52812 -2.4447,9.47842 -11.6418,9.47842 l -26.38974,0.009 0,-18.34852 26.04379,0 z m 21.77413,24.58382 c 5.08709,-3.9731 7.9956,-9.76357 7.9956,-16.76688 0,-6.9843 -2.83247,-23.21889 -28.9599,-23.21889 l -43.20228,0 0,84.06632 45.94353,0 c 18.5006,0 29.11959,-9.34155 29.11959,-25.57615 0,-7.91959 -3.77537,-14.25375 -10.89654,-18.5044 m 192.9347,-39.9873 0,17.09766 26.43159,0 0,66.96867 16.48173,0 0,-66.96867 25.77005,0 0,-17.09766 -68.68337,0 z M 491.7629,654.9007 c -15.99507,0 -28.53791,-12.29191 -28.53791,-27.98662 0,-15.69471 12.54281,-27.97902 28.53788,-27.97902 16.01408,0 28.54172,12.28431 28.54172,27.97902 0,15.69471 -12.52764,27.98662 -28.54172,27.98662 m 0,-72.15841 c -25.25297,0 -45.05005,19.40167 -45.05005,44.17559 0,24.77772 19.79708,44.17179 45.05005,44.17179 25.26819,0 45.06147,-19.39407 45.06147,-44.17179 0,-24.77392 -19.79328,-44.17559 -45.06147,-44.17559 m -106.89129,2.39526 0,84.04732 56.73364,0 0,-17.00641 -40.27853,0 0,-67.04091 -16.45511,0 z m -136.89682,0.003 0,43.87523 c 0,12.75576 -1.31933,26.27572 -22.21897,26.27572 -20.9073,0 -22.39386,-13.23481 -22.39386,-26.27572 l 0,-43.87523 -16.37907,0 0,44.91698 c 0,20.05943 5.60416,41.48377 38.77293,41.48377 33.16113,0 38.73491,-21.73231 38.73491,-41.48377 l 0,-44.91698 -16.51594,0 z m -101.36436,-0.003 0,31.30198 -42.35063,0 0,-31.32099 -16.46652,0 0,84.09674 16.46652,0 0,-35.57164 42.35063,0 0,35.57164 16.35246,0 0,-84.07773 -16.35246,0 z"
       id="path80"
       style="fill:#000000;fill-opacity:1;fill-rule:nonzero;stroke:none" />
  </g>
</svg>
