<?xml version="1.0" encoding="UTF-8" standalone="no"?>
<!-- Created with Inkscape (http://www.inkscape.org/) -->
<svg
   xmlns:svg="http://www.w3.org/2000/svg"
   xmlns="http://www.w3.org/2000/svg"
   version="1.0"
   width="1181"
   height="1181"
   id="svg13922">
  <defs
     id="defs13924" />
  <g
     id="layer1">
    <path
       d="M 572.1875,59.1875 C 532.29181,60.157591 493.4656,65.450234 456.1875,74.6875 L 525,291 L 428.5625,82.34375 C 385.39697,95.544461 344.5554,114.05156 306.78125,137.09375 L 441,282 L 288.875,148.53125 C 245.97157,177.09255 207.41335,211.64965 174.4375,251.03125 L 348,331 L 161.25,267.4375 C 127.35886,311.29079 100.12559,360.53336 81.09375,413.65625 L 190,431 L 73.6875,435.96875 C 58.300278,485.778 50,538.67152 50,593.5 C 50,606.61445 50.474317,619.62166 51.40625,632.5 L 248,566 L 54.84375,665.53125 C 64.41775,736.36631 87.897431,802.80408 122.46875,862.03125 L 440,569 L 142.5625,893.84375 C 184.32325,955.05896 238.46359,1007.205 301.40625,1046.625 C 314.61594,1018.4358 524.55377,570.38071 524,570 L 340.625,1068.9063 C 407.26026,1103.1932 482.02877,1123.9402 561.25,1127.4688 L 586,569 L 610.78125,1127.4063 C 690.32845,1123.7084 765.35771,1102.6605 832.15625,1067.9688 L 648,568 L 869.21875,1046.8125 C 932.86214,1007.0209 987.5503,954.2432 1029.5313,892.21875 L 733,568 L 1049.25,860.75 C 1083.7206,801.31549 1107.0644,734.6635 1116.4063,663.625 L 924,564 L 1119.625,631.78125 C 1120.5233,619.13387 1121,606.37434 1121,593.5 C 1121,540.76729 1113.3398,489.81213 1099.0625,441.6875 L 860,429 L 1087.7813,407.84375 C 1068.8998,357.03339 1042.4799,309.87549 1009.9063,267.6875 L 922,287 L 996.03125,250.4375 C 963.18765,211.34087 924.8393,176.99259 882.1875,148.59375 L 731,281 L 864.15625,137.09375 C 826.63698,114.21498 786.09387,95.800509 743.25,82.625 L 647,291 L 716.03125,75.03125 C 678.68822,65.684949 639.79394,60.26777 599.8125,59.21875 L 587,292 L 572.1875,59.1875 z "
       style="fill:#ee1c25;fill-opacity:1;stroke:none"
       id="path13983" />
    <path
       d="M 728,549 L 790,549 L 789,479 L 903,561 L 939,513 L 827,428 L 940,344 L 906,298 L 790,379 L 790,307 L 728,307 L 728,549 z "
       style="fill:#ffffff;fill-opacity:1;fill-rule:evenodd;stroke:none;stroke-width:1px;stroke-linecap:butt;stroke-linejoin:miter;stroke-opacity:1"
       id="path13972" />
    <path
       d="M 446,549 L 446,307 L 380,307 L 380,418 L 226,307 L 226,549 L 296,549 L 296,441 L 446,549 z "
       style="fill:#ffffff;fill-opacity:1;fill-rule:evenodd;stroke:none;stroke-width:1px;stroke-linecap:butt;stroke-linejoin:miter;stroke-opacity:1"
       id="path13974" />
    <path
       d="M 588.5,306 C 521.984,306 468,360.43202 468,427.5 C 468,494.56799 521.984,549 588.5,549 C 655.016,549 709.00002,494.568 709,427.5 C 709,418.40035 708.009,409.53004 706.125,401 L 588,401 L 588,459 L 636,459 C 626.98961,476.17762 612.26296,488.19666 584,488 C 552.36498,483.56205 531.03979,463.78421 531.25,423.9375 C 535.37759,363.56826 606.40778,358.28841 637,392 L 689.90625,361.90625 C 668.46513,328.29074 631.05618,305.99999 588.5,306 z "
       style="fill:#ffffff;fill-opacity:1;stroke:none"
       id="path13978" />
  </g>
  <g
     id="layer5" />
</svg>
