<?xml version="1.0" encoding="utf-8"?>
<!-- Generator: Adobe Illustrator 16.0.0, SVG Export Plug-In . SVG Version: 6.00 Build 0)  -->
<!DOCTYPE svg PUBLIC "-//W3C//DTD SVG 1.1//EN" "http://www.w3.org/Graphics/SVG/1.1/DTD/svg11.dtd">
<svg version="1.1" id="Layer_1" xmlns="http://www.w3.org/2000/svg" xmlns:xlink="http://www.w3.org/1999/xlink" x="0px" y="0px"
	 width="100px" height="100px" viewBox="0 0 100 100" enable-background="new 0 0 100 100" xml:space="preserve">
<g>
	<polygon fill-rule="evenodd" clip-rule="evenodd" fill="#FFFFFF" points="-47,-46 145.744,-46 145.744,146.744 -47,146.744 
		-47,-46 	"/>
	<path fill-rule="evenodd" clip-rule="evenodd" d="M48.302,34.802h2.783c1.264,0,2.294,1.029,2.294,2.289v2.776
		c0,1.262-1.03,2.293-2.294,2.293h-2.783c-1.259,0-2.292-1.031-2.292-2.293v-2.776C46.01,35.832,47.043,34.802,48.302,34.802
		L48.302,34.802z M55.813,47.527l48.706-17.878H57.057c-2.024,0-3.678-1.654-3.678-3.678l0,0c0-2.025,1.653-3.681,3.678-3.681
		h68.218c2.025,0,3.678,1.656,3.678,3.681l0,0c0,1.478-0.884,2.761-2.148,3.343L77.737,47.31h47.537c2.025,0,3.678,1.657,3.678,3.68
		l0,0c0,2.021-1.652,3.678-3.678,3.678H57.057c-2.024,0-3.678-1.656-3.678-3.678l0,0C53.379,49.4,54.396,48.039,55.813,47.527
		L55.813,47.527z M-17.169,29.649h43.655c4.854,0,8.829,3.973,8.829,8.83l0,0c0,4.856-3.974,8.831-8.829,8.831h-43.655
		c-4.856,0-8.83-3.974-8.83-8.831l0,0C-25.999,33.622-22.025,29.649-17.169,29.649L-17.169,29.649z M-17.169,22.291h43.655
		c8.902,0,16.187,7.286,16.187,16.189l0,0c0,8.906-7.285,16.188-16.187,16.188h-43.655c-8.902,0-16.189-7.283-16.189-16.188l0,0
		C-33.358,29.577-26.071,22.291-17.169,22.291L-17.169,22.291z M135.84,23.806h-0.903v1.333h0.876c0.238,0,0.437-0.022,0.598-0.062
		c0.159-0.042,0.283-0.109,0.367-0.209c0.085-0.096,0.128-0.232,0.128-0.404c0-0.134-0.035-0.253-0.103-0.356
		c-0.068-0.104-0.162-0.182-0.283-0.229C136.403,23.83,136.177,23.806,135.84,23.806L135.84,23.806z M135.279,25.842h-0.343v1.557
		c0,0.206-0.047,0.355-0.137,0.455c-0.092,0.095-0.21,0.146-0.354,0.146c-0.157,0-0.276-0.053-0.362-0.155
		c-0.086-0.099-0.131-0.25-0.131-0.445V23.67c0-0.211,0.049-0.364,0.142-0.458c0.098-0.097,0.249-0.145,0.46-0.145h1.597
		c0.221,0,0.409,0.012,0.568,0.029c0.154,0.019,0.295,0.057,0.422,0.116c0.15,0.063,0.285,0.154,0.403,0.271
		c0.117,0.122,0.206,0.26,0.265,0.416c0.062,0.158,0.091,0.325,0.091,0.501c0,0.361-0.1,0.653-0.307,0.868
		c-0.202,0.214-0.511,0.367-0.926,0.458c0.174,0.092,0.341,0.229,0.5,0.412c0.159,0.179,0.302,0.371,0.424,0.577
		c0.125,0.204,0.222,0.388,0.293,0.552c0.067,0.163,0.102,0.277,0.102,0.338c0,0.064-0.018,0.126-0.062,0.191
		c-0.038,0.062-0.093,0.112-0.166,0.148C137.688,27.98,137.606,28,137.513,28c-0.11,0-0.202-0.028-0.278-0.08
		c-0.071-0.051-0.139-0.117-0.192-0.196c-0.053-0.08-0.125-0.195-0.218-0.352l-0.396-0.654c-0.142-0.241-0.267-0.422-0.377-0.55
		c-0.11-0.123-0.226-0.21-0.34-0.255C135.597,25.866,135.452,25.842,135.279,25.842L135.279,25.842z M135.723,22.128
		c1.881,0,3.415,1.534,3.415,3.412c0,1.881-1.534,3.414-3.415,3.414c-1.882,0-3.415-1.533-3.415-3.414
		C132.308,23.662,133.841,22.128,135.723,22.128L135.723,22.128z M135.723,21.419c2.271,0,4.119,1.853,4.119,4.12
		c0,2.271-1.849,4.124-4.119,4.124s-4.12-1.853-4.12-4.124C131.603,23.272,133.452,21.419,135.723,21.419L135.723,21.419z
		 M-42.774,64.137h184.293c0.641,0,1.165,0.523,1.165,1.164l0,0c0,0.643-0.524,1.168-1.165,1.168H-42.774
		c-0.641,0-1.165-0.525-1.165-1.168l0,0C-43.939,64.66-43.416,64.137-42.774,64.137L-42.774,64.137z M-42.774,60.119h184.293
		c0.641,0,1.165,0.525,1.165,1.166l0,0c0,0.641-0.524,1.166-1.165,1.166H-42.774c-0.641,0-1.165-0.525-1.165-1.166l0,0
		C-43.939,60.645-43.416,60.119-42.774,60.119L-42.774,60.119z M-27.679,72.727v2.045h3.929c0.853,0,1.483-0.082,1.882-0.246
		c0.404-0.164,0.604-0.422,0.604-0.775c0-0.334-0.197-0.588-0.595-0.764c-0.391-0.174-0.972-0.26-1.736-0.26H-27.679L-27.679,72.727
		z M-27.679,78.359c0,0.285-0.139,0.496-0.414,0.637s-0.698,0.207-1.265,0.207c-0.56,0-0.979-0.068-1.254-0.211
		s-0.415-0.352-0.415-0.633v-5.746c0-0.471,0.149-0.793,0.441-0.963c0.296-0.17,0.827-0.254,1.59-0.254h5.854
		c1.775,0,3.088,0.184,3.941,0.543c0.856,0.359,1.281,0.908,1.281,1.648c0,0.471-0.205,0.863-0.624,1.176
		c-0.414,0.316-1.016,0.529-1.795,0.646c0.611,0.096,1.076,0.252,1.391,0.459c0.322,0.211,0.509,0.492,0.577,0.838
		c0.029,0.143,0.053,0.328,0.063,0.559c0.018,0.232,0.044,0.387,0.08,0.471c0.03,0.094,0.083,0.223,0.167,0.398
		c0.078,0.174,0.119,0.293,0.119,0.365c0,0.219-0.15,0.393-0.452,0.521c-0.302,0.127-0.707,0.195-1.214,0.195
		c-0.701,0-1.199-0.098-1.494-0.289c-0.298-0.189-0.508-0.674-0.617-1.453c-0.086-0.619-0.299-1.002-0.631-1.145
		c-0.335-0.146-0.932-0.219-1.788-0.219h-3.541V78.359L-27.679,78.359z M5.945,72.943l-2.251,3.281H8.21L5.945,72.943L5.945,72.943z
		 M2.058,78.629c-0.13,0.193-0.328,0.34-0.595,0.434c-0.265,0.096-0.607,0.141-1.025,0.141c-0.478,0-0.866-0.063-1.166-0.191
		c-0.297-0.125-0.447-0.293-0.447-0.504c0-0.07,0.011-0.139,0.037-0.203c0.027-0.068,0.071-0.135,0.129-0.205l4.494-5.99
		c0.259-0.346,0.544-0.57,0.863-0.666c0.315-0.102,0.846-0.15,1.599-0.15c0.715,0,1.231,0.047,1.55,0.141
		c0.322,0.098,0.614,0.314,0.88,0.654l4.582,6.012c0.06,0.07,0.101,0.137,0.127,0.205c0.026,0.064,0.04,0.133,0.04,0.203
		c0,0.209-0.153,0.373-0.455,0.502c-0.301,0.131-0.696,0.193-1.181,0.193c-0.413,0-0.748-0.045-1.014-0.139
		c-0.259-0.09-0.454-0.236-0.588-0.436l-0.772-1.104H2.811L2.058,78.629L2.058,78.629z M29.504,75.375
		c0-1.316,0.689-2.344,2.066-3.084c1.374-0.734,3.296-1.102,5.76-1.102c0.972,0,1.865,0.063,2.681,0.186
		c0.814,0.127,1.583,0.324,2.314,0.592c0.498,0.178,0.893,0.381,1.177,0.611c0.29,0.229,0.433,0.447,0.433,0.654
		c0,0.232-0.144,0.416-0.433,0.553c-0.285,0.137-0.673,0.209-1.159,0.209c-0.27,0-0.533-0.025-0.774-0.078
		c-0.25-0.053-0.495-0.133-0.737-0.244c-0.123-0.057-0.262-0.139-0.415-0.254c-0.148-0.113-0.258-0.191-0.323-0.225
		c-0.354-0.195-0.772-0.342-1.261-0.438c-0.483-0.094-1.041-0.143-1.668-0.143c-1.318,0-2.356,0.232-3.113,0.701
		c-0.756,0.467-1.138,1.111-1.138,1.936c0,0.842,0.382,1.492,1.142,1.951c0.762,0.461,1.848,0.688,3.251,0.688
		c0.62,0,1.179-0.047,1.67-0.139c0.495-0.09,0.895-0.225,1.204-0.402c0.123-0.072,0.253-0.162,0.375-0.271
		c0.126-0.109,0.209-0.182,0.252-0.209c0.279-0.17,0.541-0.287,0.773-0.354c0.24-0.064,0.505-0.094,0.807-0.094
		c0.448,0,0.83,0.066,1.142,0.207c0.313,0.139,0.471,0.311,0.471,0.51c0,0.195-0.14,0.408-0.415,0.645
		c-0.275,0.23-0.641,0.447-1.096,0.641c-0.753,0.314-1.551,0.545-2.406,0.689c-0.845,0.141-1.834,0.213-2.959,0.213
		c-2.363,0-4.226-0.352-5.583-1.055C30.184,77.564,29.504,76.6,29.504,75.375L29.504,75.375z M61.907,72.143
		c0-0.287,0.139-0.5,0.414-0.641c0.274-0.139,0.694-0.209,1.255-0.209c0.557,0,0.977,0.072,1.258,0.213
		c0.278,0.141,0.418,0.354,0.418,0.637v6.217c0,0.285-0.14,0.496-0.415,0.637s-0.696,0.207-1.261,0.207
		c-0.554,0-0.969-0.068-1.251-0.211c-0.279-0.143-0.418-0.352-0.418-0.633V72.143L61.907,72.143z M86.819,78.262
		c0,0.32-0.135,0.557-0.407,0.713c-0.275,0.15-0.69,0.229-1.248,0.229c-0.577,0-0.996-0.074-1.253-0.227
		c-0.263-0.146-0.394-0.389-0.394-0.715v-5.758c0-0.471,0.147-0.785,0.441-0.955c0.292-0.174,0.824-0.256,1.591-0.256
		c0.876,0,1.752,0.35,2.625,1.051c0.082,0.066,0.145,0.109,0.18,0.143l5.266,4.211v-4.463c0-0.318,0.136-0.559,0.406-0.709
		c0.268-0.156,0.687-0.232,1.25-0.232c0.567,0,0.982,0.074,1.251,0.229c0.264,0.15,0.394,0.391,0.394,0.713v5.779
		c0,0.449-0.134,0.76-0.4,0.932c-0.269,0.172-0.741,0.258-1.406,0.258c-0.592,0-1.056-0.049-1.396-0.145
		c-0.338-0.1-0.746-0.336-1.224-0.719l-5.676-4.529V78.262L86.819,78.262z M126.362,76.256h-2.495c-0.425,0-0.773-0.063-1.032-0.189
		c-0.258-0.125-0.39-0.289-0.39-0.498c0-0.193,0.126-0.346,0.38-0.461c0.251-0.111,0.602-0.17,1.042-0.17h3.601
		c0.724,0,1.225,0.053,1.514,0.16c0.288,0.107,0.432,0.297,0.432,0.563v2.947c0,0.238-0.098,0.416-0.282,0.529
		c-0.188,0.111-0.484,0.166-0.89,0.166c-0.324,0-0.591-0.047-0.797-0.133c-0.202-0.088-0.352-0.219-0.431-0.391l-0.252-0.582
		c-0.614,0.389-1.305,0.672-2.07,0.857c-0.771,0.178-1.671,0.27-2.7,0.27c-2.279,0-4.128-0.373-5.534-1.121
		c-1.404-0.748-2.104-1.73-2.104-2.953c0-1.236,0.7-2.219,2.102-2.951c1.403-0.734,3.278-1.1,5.627-1.1
		c0.758,0,1.472,0.035,2.142,0.105c0.669,0.068,1.291,0.17,1.864,0.307c0.804,0.199,1.425,0.424,1.865,0.678
		c0.441,0.254,0.663,0.514,0.663,0.773c0,0.219-0.142,0.404-0.424,0.551c-0.282,0.145-0.632,0.221-1.046,0.221
		c-0.354,0-0.659-0.037-0.922-0.107c-0.259-0.068-0.579-0.213-0.953-0.428c-0.44-0.268-0.898-0.461-1.37-0.572
		s-1.032-0.166-1.675-0.166c-1.365,0-2.437,0.238-3.221,0.715c-0.782,0.475-1.174,1.131-1.174,1.965
		c0,0.836,0.405,1.488,1.221,1.965c0.811,0.477,1.922,0.717,3.329,0.717c1.058,0,1.943-0.15,2.657-0.445
		C125.752,77.178,126.195,76.773,126.362,76.256L126.362,76.256z"/>
</g>
</svg>
