<?xml version="1.0" encoding="utf-8"?>
<!-- Generator: Adobe Illustrator 16.0.0, SVG Export Plug-In . SVG Version: 6.00 Build 0)  -->
<!DOCTYPE svg PUBLIC "-//W3C//DTD SVG 1.1//EN" "http://www.w3.org/Graphics/SVG/1.1/DTD/svg11.dtd">
<svg version="1.1" id="Layer_1" xmlns="http://www.w3.org/2000/svg" xmlns:xlink="http://www.w3.org/1999/xlink" x="0px" y="0px"
	 width="288px" height="288px" viewBox="0 0 288 288" enable-background="new 0 0 288 288" xml:space="preserve">
<g>
	<g>
		<path fill="#FFF797" d="M220.87,144.43h-26.424l-4.051,7.445h-64.424l-7.42-7.445H93.103v2.092H81.448l-5.365-5.365v-9.271H73.04
			l-5.93-5.973v-14.916h115.854l7.432,7.432h19.139c0,0,0.627-2.342,3.211-2.396c0.846,0,1.953,0.449,2.467,1.123l6.654,6.664
			c0.631,0.711,0.828,1.514,0.828,2.422c-0.148,1.236-0.814,2.197-1.826,2.748"/>
		<path fill="none" stroke="#FFF797" stroke-width="1.2249" stroke-miterlimit="3.8637" d="M220.87,144.43h-26.424l-4.051,7.445
			h-64.424l-7.42-7.445H93.103v2.092H81.448l-5.365-5.365v-9.271H73.04l-5.93-5.973v-14.916h115.854l7.432,7.432h19.139
			c0,0,0.627-2.342,3.211-2.396c0.846,0,1.953,0.449,2.467,1.123l6.654,6.664c0.631,0.711,0.828,1.514,0.828,2.422
			c-0.148,1.236-0.814,2.197-1.826,2.748L220.87,144.43z"/>
		<path fill-rule="evenodd" clip-rule="evenodd" fill="#41535D" d="M51.729,95.604h184.541v86.119H51.729V95.604z M220.87,144.43
			h-26.424l-4.051,7.445h-64.424l-7.42-7.445H93.103v2.092H81.448l-5.365-5.365v-9.271H73.04l-5.93-5.973v-14.916h115.854
			l7.432,7.432h19.139c0,0,0.627-2.342,3.211-2.396c0.846,0,1.953,0.449,2.467,1.123l6.654,6.664
			c0.631,0.711,0.828,1.514,0.828,2.422c-0.148,1.236-0.814,2.197-1.826,2.748L220.87,144.43z"/>
		<polyline points="70.847,116.813 70.847,120.031 81.897,120.031 81.901,138.59 85.185,138.59 85.188,120.031 164.745,120.031 
			164.741,116.809 		"/>
		<polygon fill="none" stroke="#000000" stroke-width="0.085" stroke-miterlimit="3.8637" points="70.847,116.813 70.847,120.031 
			81.897,120.031 81.901,138.59 85.185,138.59 85.188,120.031 164.745,120.031 164.741,116.809 		"/>
		<polyline points="87.843,124.238 87.843,136.5 100.347,136.5 100.351,133.209 91.091,133.211 91.087,131.777 96.813,131.777 
			96.813,128.844 91.079,128.844 91.081,127.477 100.136,127.477 100.142,124.24 		"/>
		<polygon fill="none" stroke="#000000" stroke-width="0.085" stroke-miterlimit="3.8637" points="87.843,124.238 87.843,136.5 
			100.347,136.5 100.351,133.209 91.091,133.211 91.087,131.777 96.813,131.777 96.813,128.844 91.079,128.844 91.081,127.477 
			100.136,127.477 100.142,124.24 		"/>
		<polyline points="118.399,124.24 118.411,136.5 121.646,136.5 121.646,131.779 128.222,131.777 128.22,136.5 131.47,136.5 
			131.47,124.24 128.222,124.238 128.222,128.83 121.646,128.83 121.646,124.236 		"/>
		<polygon fill="none" stroke="#000000" stroke-width="0.085" stroke-miterlimit="3.8637" points="118.399,124.24 118.411,136.5 
			121.646,136.5 121.646,131.779 128.222,131.777 128.22,136.5 131.47,136.5 131.47,124.24 128.222,124.238 128.222,128.83 
			121.646,128.83 121.646,124.236 		"/>
		<polyline points="133.853,124.24 133.853,136.5 137.101,136.5 137.101,127.818 143.952,136.5 148.399,136.504 148.399,124.238 
			145.149,124.24 145.149,132.92 138.298,124.24 		"/>
		<polygon fill="none" stroke="#000000" stroke-width="0.085" stroke-miterlimit="3.8637" points="133.853,124.24 133.853,136.5 
			137.101,136.5 137.101,127.818 143.952,136.5 148.399,136.504 148.399,124.238 145.149,124.24 145.149,132.92 138.298,124.24 		
			"/>
		<path fill-rule="evenodd" clip-rule="evenodd" d="M154.938,127.477h5.658c0.506,0,0.916,0.41,0.916,0.916l-0.002,3.896
			c0,0.508-0.41,0.918-0.916,0.918l-5.65,0.01c-0.506,0-0.918-0.41-0.918-0.916l-0.004-3.908
			C154.022,127.887,154.433,127.477,154.938,127.477 M154.433,124.236l6.646,0.006c2.025,0,3.666,1.643,3.666,3.666v4.922
			c0,2.025-1.641,3.666-3.668,3.666l-6.645,0.008c-2.023,0-3.666-1.643-3.666-3.668v-4.934
			C150.767,125.879,152.409,124.236,154.433,124.236z"/>
		<path fill="none" stroke="#000000" stroke-width="0.085" stroke-miterlimit="3.8637" d="M154.433,124.236l6.646,0.006
			c2.025,0,3.666,1.643,3.666,3.666v4.922c0,2.025-1.641,3.666-3.668,3.666l-6.645,0.008c-2.023,0-3.666-1.643-3.666-3.668v-4.934
			C150.767,125.879,152.409,124.236,154.433,124.236z"/>
		<path fill="none" stroke="#000000" stroke-width="0.085" stroke-miterlimit="3.8637" d="M154.938,127.477h5.658
			c0.506,0,0.916,0.41,0.916,0.916l-0.002,3.896c0,0.508-0.41,0.918-0.916,0.918l-5.65,0.01c-0.506,0-0.918-0.41-0.918-0.916
			l-0.004-3.908C154.022,127.887,154.433,127.477,154.938,127.477z"/>
		<path d="M112.794,131.855l-0.004,0.434c0,0.508-0.412,0.918-0.918,0.918h-5.643c-0.506,0-0.918-0.41-0.918-0.918l-0.006-3.898
			c0-0.506,0.41-0.916,0.916-0.916l5.65,0.002c0.506,0,0.918,0.41,0.918,0.916l0.004,0.438h3.248l-0.004-0.924
			c0-2.025-1.643-3.666-3.668-3.666l-6.633,0.002c-2.027,0-3.684,1.643-3.684,3.666l0.008,4.924c0,2.025,1.641,3.668,3.666,3.668
			h6.648c2.027,0,3.666-1.643,3.666-3.668v-0.977"/>
		<path fill="none" stroke="#000000" stroke-width="0.085" stroke-miterlimit="3.8637" d="M112.794,131.855l-0.004,0.434
			c0,0.508-0.412,0.918-0.918,0.918h-5.643c-0.506,0-0.918-0.41-0.918-0.918l-0.006-3.898c0-0.506,0.41-0.916,0.916-0.916
			l5.65,0.002c0.506,0,0.918,0.41,0.918,0.916l0.004,0.438h3.248l-0.004-0.924c0-2.025-1.643-3.666-3.668-3.666l-6.633,0.002
			c-2.027,0-3.684,1.643-3.684,3.666l0.008,4.924c0,2.025,1.641,3.668,3.666,3.668h6.648c2.027,0,3.666-1.643,3.666-3.668v-0.977
			H112.794z"/>
		<path d="M181.663,119.926v3.264h-10.264c-0.551,0-0.996,0.51-0.996,1.139l0.004,7.746c0,0.631,0.43,1.141,0.98,1.141l7.656-0.004
			v-2.473h-3.182v-3.258l6.445-0.004v9.021l-11.17,0.002c-2.203,0-3.99-2.045-3.99-4.564l-0.012-7.451
			c0-2.521,1.789-4.563,3.99-4.563"/>
		<path fill="none" stroke="#000000" stroke-width="0.085" stroke-miterlimit="3.8637" d="M181.663,119.926v3.264h-10.264
			c-0.551,0-0.996,0.51-0.996,1.139l0.004,7.746c0,0.631,0.43,1.141,0.98,1.141l7.656-0.004v-2.473h-3.182v-3.258l6.445-0.004v9.021
			l-11.17,0.002c-2.203,0-3.99-2.045-3.99-4.564l-0.012-7.451c0-2.521,1.789-4.563,3.99-4.563L181.663,119.926z"/>
		<polyline points="208.144,136.5 205.298,136.5 201.63,129.014 201.636,136.5 198.399,136.5 198.392,124.24 202.983,124.24 
			206.722,131.855 210.458,124.24 215.046,124.246 215.042,136.5 211.806,136.5 211.81,129.014 		"/>
		<polygon fill="none" stroke="#000000" stroke-width="0.085" stroke-miterlimit="3.8637" points="208.144,136.5 205.298,136.5 
			201.63,129.014 201.636,136.5 198.399,136.5 198.392,124.24 202.983,124.24 206.722,131.855 210.458,124.24 215.046,124.246 
			215.042,136.5 211.806,136.5 211.81,129.014 		"/>
		<polyline points="186.079,143.971 128.22,143.971 128.224,140.678 183.989,140.682 188.067,133.174 183.202,124.246 
			186.899,124.246 189.921,129.818 192.935,124.246 196.632,124.246 		"/>
		<polygon fill="none" stroke="#000000" stroke-width="0.085" stroke-miterlimit="3.8637" points="186.079,143.971 128.22,143.971 
			128.224,140.678 183.989,140.682 188.067,133.174 183.202,124.246 186.899,124.246 189.921,129.818 192.935,124.246 
			196.632,124.246 		"/>
		<circle fill="none" stroke="#000000" stroke-width="0.3577" stroke-miterlimit="3.8637" cx="212.72" cy="119.432" r="2.387"/>
		<path fill-rule="evenodd" clip-rule="evenodd" d="M212.175,119.449v-0.896h0.699c0.363,0,0.43,0.066,0.43,0.438
			c0,0.387-0.092,0.459-0.463,0.459 M212.95,119.877c0.24,0.006,0.33,0.158,0.33,0.381v0.488h0.504v-0.488
			c0-0.371-0.086-0.564-0.443-0.596v-0.016c0.443-0.064,0.467-0.348,0.467-0.736c0-0.596-0.223-0.771-0.795-0.787h-1.34v2.623h0.502
			v-0.869H212.95z"/>
		<path fill="none" stroke="#000000" stroke-width="0.0973" stroke-miterlimit="3.8637" d="M212.95,119.877
			c0.24,0.006,0.33,0.158,0.33,0.381v0.488h0.504v-0.488c0-0.371-0.086-0.564-0.443-0.596v-0.016
			c0.443-0.064,0.467-0.348,0.467-0.736c0-0.596-0.223-0.771-0.795-0.787h-1.34v2.623h0.502v-0.869H212.95z"/>
		<path fill="none" stroke="#000000" stroke-width="0.0973" stroke-miterlimit="3.8637" d="M212.175,119.449v-0.896h0.699
			c0.363,0,0.43,0.066,0.43,0.438c0,0.387-0.092,0.459-0.463,0.459H212.175z"/>
		<path fill="#FFFFFF" d="M160.401,172.305c-0.039,0.713-0.352,1.426-1.164,1.426c-1.188,0-1.236-1.463-1.236-2.326
			c0-0.813,0.049-2.6,1.213-2.6c0.887,0,1.162,0.912,1.137,1.639l2.449-0.127c-0.174-2.137-1.426-3.438-3.611-3.438
			c-2.701,0-3.887,2.051-3.887,4.525c0,2.439,1.348,4.301,3.922,4.301c1.977,0,3.414-1.275,3.576-3.252"/>
		<path fill-rule="evenodd" clip-rule="evenodd" fill="#FFFFFF" d="M166.966,170.629c0.85,0,0.863,1.113,0.863,1.725
			c0,1.713-0.414,1.838-0.863,1.838c-0.451,0-0.861-0.125-0.861-1.838C166.104,171.742,166.116,170.629,166.966,170.629
			 M166.966,169.066c-2,0-3.514,1.326-3.514,3.377c0,1.938,1.564,3.262,3.514,3.262s3.512-1.324,3.512-3.262
			C170.478,170.393,168.964,169.066,166.966,169.066z"/>
		<path fill="#FFFFFF" d="M171.198,169.191v6.389h2.424v-3.838c0-0.477,0.053-0.912,0.639-0.912c0.537,0,0.563,0.512,0.563,0.912
			v3.838h2.424v-3.551c0-0.512-0.025-1.162,0.674-1.162c0.578,0,0.527,0.463,0.527,0.875v3.838h2.426v-4.189
			c0-0.672,0-1.299-0.465-1.773c-0.375-0.389-0.949-0.551-1.486-0.551c-0.838,0-1.477,0.275-1.914,0.988
			c-0.385-0.688-1.012-0.988-1.799-0.988c-0.75,0-1.387,0.338-1.738,0.988h-0.023v-0.863"/>
		<path fill-rule="evenodd" clip-rule="evenodd" fill="#FFFFFF" d="M181.858,169.191v8.4h2.475v-2.699
			c0.389,0.563,0.988,0.813,1.65,0.813c0.889,0,1.551-0.475,1.963-1.238c0.338-0.623,0.451-1.438,0.451-2.15
			c0-1.498-0.602-3.25-2.402-3.25c-0.85,0-1.549,0.264-1.811,1.037h-0.027v-0.912 M184.347,171.566c0-0.248-0.014-0.449,0.148-0.648
			c0.137-0.164,0.34-0.264,0.551-0.264c0.787,0,0.775,1.262,0.775,1.789c0,0.361-0.025,0.813-0.125,1.162
			c-0.1,0.338-0.324,0.523-0.676,0.523c-0.6,0-0.674-0.586-0.674-1.035V171.566z"/>
		<path fill-rule="evenodd" clip-rule="evenodd" fill="#FFFFFF" d="M192.954,172.719c0,0.697-0.012,1.486-0.949,1.486
			c-0.389,0-0.65-0.176-0.65-0.588c0-0.775,1.002-0.963,1.6-1.025 M195.556,175.58c-0.189-0.449-0.201-0.924-0.201-1.4v-2.236
			c0-0.914,0.1-1.738-0.738-2.326c-0.625-0.449-1.586-0.551-2.336-0.551c-1.438,0-2.949,0.414-3.324,2l2.275,0.213
			c0.074-0.537,0.484-0.711,0.973-0.711c0.6,0,0.75,0.223,0.75,0.799v0.051c-0.836,0.051-1.699,0.148-2.512,0.398
			c-0.887,0.275-1.676,0.951-1.676,1.963c0,1.275,1.039,1.926,2.227,1.926c0.875,0,1.586-0.275,2.086-1.012
			c0,0.299,0.027,0.6,0.088,0.887H195.556z"/>
		<path fill="#FFFFFF" d="M196.226,169.191v6.389h2.475v-3.688c0-0.525,0.064-1.111,0.75-1.111c0.539,0,0.539,0.537,0.539,0.922
			v3.877h2.475v-3.939c0-0.66,0-1.387-0.4-1.91c-0.375-0.488-1.063-0.664-1.662-0.664c-0.775,0-1.512,0.301-1.813,1.025h-0.025v-0.9
			"/>
		<path fill="#FFFFFF" d="M209.573,169.191h-1.824l-1.115,3.4l-1.049-3.4h-2.688l2.236,5.775c0.063,0.174,0.164,0.387,0.164,0.574
			c0,0.502-0.75,0.488-1.088,0.488l-0.9-0.076v1.775l0.213,0.014l1.051,0.049c1.424,0,2.061-0.5,2.535-1.824"/>
		<polyline fill="#FFFFFF" points="77.89,169.066 79.651,169.066 79.651,167.006 73.589,167.006 73.589,169.066 75.388,169.066 
			75.388,175.58 77.89,175.58 		"/>
		<path fill="#FFFFFF" d="M86.481,175.58v-4c0-0.65,0-1.264-0.361-1.814c-0.35-0.523-1.014-0.699-1.637-0.699
			c-0.75,0-1.326,0.301-1.801,0.875v-2.936h-2.475v8.574h2.475v-3.838c-0.014-0.211,0-0.438,0.139-0.613
			c0.137-0.199,0.348-0.311,0.586-0.311c0.512,0,0.6,0.361,0.6,0.785v3.977"/>
		<path fill-rule="evenodd" clip-rule="evenodd" fill="#FFFFFF" d="M89.829,171.631c-0.025-0.588,0.236-1.102,0.887-1.102
			c0.699,0,0.9,0.475,0.9,1.102 M91.78,173.293c-0.104,0.551-0.414,0.773-0.977,0.773c-0.75,0-1-0.498-0.963-1.186h4.275v-0.338
			c0-2.1-1.301-3.477-3.424-3.477c-0.914,0-1.889,0.314-2.539,0.988c-0.6,0.613-0.938,1.549-0.938,2.412
			c0,0.912,0.363,1.787,1.051,2.398c0.725,0.641,1.637,0.84,2.574,0.84c1.514,0,2.887-0.713,3.275-2.264L91.78,173.293z"/>
		<polyline fill="#FFFFFF" points="109.569,167.006 107.556,167.006 106.368,171.955 106.345,171.955 105.081,167.006 
			103.021,167.006 101.856,171.955 101.833,171.955 100.646,167.006 98.171,167.006 100.456,175.58 102.757,175.58 103.87,170.854 
			103.894,170.854 105.081,175.58 107.294,175.58 		"/>
		<path fill-rule="evenodd" clip-rule="evenodd" fill="#FFFFFF" d="M111.683,171.631c-0.027-0.588,0.236-1.102,0.887-1.102
			c0.699,0,0.898,0.475,0.898,1.102 M113.63,173.293c-0.1,0.551-0.41,0.773-0.975,0.773c-0.75,0-1-0.498-0.961-1.186h4.275v-0.338
			c0-2.1-1.301-3.477-3.428-3.477c-0.912,0-1.885,0.314-2.535,0.988c-0.6,0.613-0.938,1.549-0.938,2.412
			c0,0.912,0.361,1.787,1.051,2.398c0.723,0.641,1.637,0.84,2.574,0.84c1.51,0,2.887-0.713,3.275-2.264L113.63,173.293z"/>
		<rect x="116.851" y="167.006" fill="#FFFFFF" width="2.475" height="8.574"/>
		<rect x="120.571" y="167.006" fill="#FFFFFF" width="2.475" height="8.574"/>
		<path fill="#FFFFFF" d="M124.169,169.191v6.389h2.475v-3.688c0-0.525,0.063-1.111,0.75-1.111c0.537,0,0.537,0.537,0.537,0.922
			v3.877h2.475v-3.939c0-0.66,0-1.387-0.398-1.91c-0.375-0.488-1.064-0.664-1.662-0.664c-0.775,0-1.514,0.301-1.814,1.025h-0.023
			v-0.9"/>
		<path fill-rule="evenodd" clip-rule="evenodd" fill="#FFFFFF" d="M133.765,171.631c-0.025-0.588,0.238-1.102,0.889-1.102
			c0.699,0,0.898,0.475,0.898,1.102 M135.714,173.293c-0.1,0.551-0.41,0.773-0.975,0.773c-0.75,0-1-0.498-0.963-1.186h4.277v-0.338
			c0-2.1-1.301-3.477-3.428-3.477c-0.912,0-1.887,0.314-2.535,0.988c-0.6,0.613-0.938,1.549-0.938,2.412
			c0,0.912,0.361,1.787,1.049,2.398c0.725,0.641,1.637,0.84,2.576,0.84c1.51,0,2.887-0.713,3.275-2.264L135.714,173.293z"/>
		<path fill="#FFFFFF" d="M138.472,173.768c0.477,1.473,1.787,1.938,3.213,1.938c1.438,0,3.299-0.5,3.299-2.264
			c0-0.688-0.313-1.25-0.898-1.625c-0.514-0.313-1.162-0.398-1.738-0.475c-0.299-0.037-0.799-0.076-1.074-0.15
			c-0.164-0.035-0.377-0.125-0.377-0.324c0-0.275,0.602-0.338,0.801-0.338c0.438,0,0.926,0.125,1.113,0.563l1.889-0.363
			c-0.428-1.197-1.689-1.662-2.889-1.662c-0.711,0-1.424,0.102-2.051,0.488c-0.598,0.375-0.986,0.951-0.986,1.674
			c0,1.701,1.586,1.965,2.924,2.15c0.225,0.025,1.074,0.086,1.074,0.414c0,0.375-0.699,0.398-0.949,0.398
			c-0.537,0-1.225-0.076-1.361-0.686"/>
		<path fill="#FFFFFF" d="M145.171,173.768c0.477,1.473,1.787,1.938,3.213,1.938c1.438,0,3.299-0.5,3.299-2.264
			c0-0.688-0.313-1.25-0.9-1.625c-0.512-0.313-1.16-0.398-1.738-0.475c-0.299-0.037-0.799-0.076-1.072-0.15
			c-0.162-0.035-0.375-0.125-0.375-0.324c0-0.275,0.6-0.338,0.801-0.338c0.438,0,0.922,0.125,1.111,0.563l1.887-0.363
			c-0.424-1.197-1.688-1.662-2.887-1.662c-0.713,0-1.426,0.102-2.049,0.488c-0.602,0.375-0.988,0.951-0.988,1.674
			c0,1.701,1.588,1.965,2.926,2.15c0.223,0.025,1.074,0.086,1.074,0.414c0,0.375-0.699,0.398-0.951,0.398
			c-0.537,0-1.225-0.076-1.361-0.686"/>
		<polyline fill="#FFFFFF" points="214.021,166.432 211.267,166.432 211.267,167.17 212.214,167.17 212.214,170.166 
			213.083,170.166 213.083,167.17 214.021,167.17 		"/>
		<polyline fill="#FFFFFF" points="217.659,167.121 217.683,167.121 217.683,170.166 218.554,170.166 218.554,166.432 
			217.187,166.432 216.501,168.668 215.847,166.432 214.479,166.432 214.479,170.166 215.216,170.166 215.216,167.121 
			215.228,167.121 216.136,170.166 216.733,170.166 		"/>
	</g>
</g>
</svg>
