<?xml version="1.0" encoding="UTF-8"?><svg xmlns="http://www.w3.org/2000/svg" height="480" width="460"><path fill-rule="nonzero" fill="#231f20" d="m432.71,408.45,22.295,0,0,65.786-22.295,0,0-65.786zm-47.849,42.291,6.9925-20.271,0.20582,0,6.4846,20.271-13.683,0zm-30.509,23.496,22.404,0,3.239-9.3941,23.008,0,3.0399,9.3941,23.111,0-26.35-65.786-21.794,0-26.659,65.786m-68.922,0,22.295,0,0-26.076,20.881,0,0,26.076,22.295,0,0-65.786-22.295,0,0,22.851-20.881,0,0-22.851-22.295,0,0,65.786m-8.2207-41.275c-1.9214-16.496-12.873-25.987-32.732-26.076-22.302,0-36.691,13.731-36.691,34.461,0,19.44,13.278,34.461,36.691,34.461,21.183,0,33.041-14.101,33.041-27.366h-21.897c-1.3175,6.169-4.2545,10.966-11.755,10.966-10.437,0-13.786-9.2158-13.786-18.061s3.3488-18.061,13.786-18.061c9.2226,0,11.254,7.2806,11.659,9.6755h21.684m-99.609-24.511,22.295,0,0,65.786-22.295,0,0-65.786zm-69.938,65.786,61.017,0,0-16.86-38.716,0,0-8.2002,34.152,0,0-15.666-34.152,0,0-8.2002,37.597,0,0-16.86-59.899,0,0,65.786m-3.63-65.786-21.993,0-9.0236,41.186-0.19943,0-8.5158-41.186-19.66,0-8.7217,40.637-0.19943,0-8.8177-40.637-21.897,0,19.667,65.786,21.794,0,7.5963-40.081,0.20582,0,7.8021,40.081,21.691,0,20.27-65.786"/><path stroke-linejoin="miter" d="m134.25,123.33,208.98,0m-268.39,56.75c0-89.934,72.895-162.83,162.82-162.83,89.927,0,162.82,72.895,162.82,162.83,0,89.92-72.895,162.82-162.82,162.82-89.927,0-162.82-72.902-162.82-162.82zm45.585,0.007c0-64.75,52.488-117.24,117.23-117.24,64.75,0,117.23,52.488,117.23,117.24,0,64.743-52.481,117.23-117.23,117.23-64.743,0-117.23-52.488-117.23-117.23zm6.6425-18.445,224.27,0m-224.27,38.318,224.27,0m-217.07,38.318,208.98,0" stroke="#231f20" stroke-linecap="butt" stroke-miterlimit="3.86400008" stroke-dasharray="none" stroke-width="26.12379837" fill="none"/></svg>
